<?xml version="1.0" encoding="utf-8"?>
<!-- Generator: Adobe Illustrator 22.0.0, SVG Export Plug-In . SVG Version: 6.00 Build 0)  -->
<svg version="1.1" id="Layer_1" xmlns="http://www.w3.org/2000/svg" xmlns:xlink="http://www.w3.org/1999/xlink" x="0px" y="0px"
	 viewBox="0 0 1017.2 187.9" style="enable-background:new 0 0 1017.2 187.9;" xml:space="preserve">
<style type="text/css">
	.st0{fill:#ED1C24;}
	.st1{font-family:'HelveticaNeue-CondensedBold';}
	.st2{font-size:134px;}
</style>
<g>
	<path d="M166.3,0c1,0.6,1.2,1.1,0.7,2.1c-1.7,3.6-0.9,7.5,2.3,10.2c0.8,0.6,1.7,1.2,2.5,1.8c3.1,2.3,5.3,5.2,6.5,8.8
		c0.6,2.1,0.6,4.1,0.2,6.2c-0.9,4.9-3.4,8.8-7.5,11.5c-4.3,2.9-9.1,3.6-14.1,2.3c-3.7-1-6.7-3.1-9.1-6.2c-2.1-2.6-3.3-5.6-3.6-9
		c-0.3-3.5,0.3-6.7,2.3-9.7c0.7-1.1,1.7-1.9,3.1-2.1c1.1-0.2,1.7,0.5,1.6,1.6c-0.2,1.8-0.2,3.6,0.3,5.4c0.1,0.5,0.4,1,0.7,1.5
		c0.4,0.6,1,0.7,1.6,0.6c0.3,0,0.3-0.3,0.3-0.5c-0.1-0.7-0.1-1.5-0.2-2.2c-0.6-3-0.8-6-0.7-9.1c0.1-2.5,0.5-4.9,1.6-7.2
		c1.6-3.2,4.2-5,7.7-5.7c0.8-0.2,1.6-0.2,2.4-0.4C165.3,0,165.8,0,166.3,0z M148.5,19.9C148.5,19.9,148.4,19.9,148.5,19.9
		c-0.2,0.1-0.3,0.3-0.4,0.4c-1.7,3.4-1.9,6.9-0.7,10.4c1,3.1,2.8,5.6,5.5,7.5c3.7,2.6,7.7,3.5,12.1,2.4c6-1.6,9.7-5.6,11-11.7
		c0.5-2.1,0.4-4.3-0.5-6.3c-1.2-2.9-3.2-5.2-5.9-6.9c-1-0.7-2-1.4-2.9-2.3c-2.7-2.7-3.7-5.9-2.9-9.7c0.1-0.3,0.1-0.7,0.2-1.1
		c-2,0.3-3.7,0.8-5.1,2.1c-1.8,1.6-2.6,3.7-2.9,6c-0.5,3.3-0.3,6.6,0.2,9.8c0.2,1.4,0.4,2.8,0.5,4.2c0,1.4-0.9,2.5-2.3,2.8
		c-1.8,0.5-3.7-0.4-4.6-2.1c-0.8-1.4-1.1-3-1.2-4.6C148.5,20.6,148.5,20.2,148.5,19.9z"/>
	<path class="st0" d="M148.5,19.9c0,0.4,0,0.7,0.1,1.1c0.1,1.6,0.4,3.1,1.2,4.6c0.9,1.7,2.8,2.5,4.6,2.1c1.4-0.4,2.3-1.4,2.3-2.8
		c0-1.4-0.2-2.8-0.5-4.2c-0.5-3.3-0.7-6.6-0.2-9.8c0.3-2.3,1.1-4.4,2.9-6c1.4-1.3,3.2-1.9,5.1-2.1c-0.1,0.4-0.2,0.7-0.2,1.1
		c-0.7,3.7,0.2,7,2.9,9.7c0.9,0.9,1.9,1.6,2.9,2.3c2.6,1.8,4.6,4,5.9,6.9c0.9,2,1,4.2,0.5,6.3c-1.3,6.1-5,10.1-11,11.7
		c-4.4,1.2-8.4,0.2-12.1-2.4c-2.6-1.9-4.5-4.4-5.5-7.5c-1.2-3.6-1-7.1,0.7-10.4C148.2,20.2,148.3,20,148.5,19.9
		C148.4,19.9,148.5,19.9,148.5,19.9z"/>
</g>
<text transform="matrix(1 0 0 1 0 142.8574)" class="st1 st2">FLAME NEWS POST</text>
</svg>
